<mxfile host="app.diagrams.net" modified="2023-09-26T15:19:11.148Z" agent="Mozilla/5.0 (Windows NT 10.0; Win64; x64) AppleWebKit/537.36 (KHTML, like Gecko) Chrome/117.0.0.0 Safari/537.36 Edg/117.0.2045.41" etag="Bsujzj7t1asri199TkTt" version="21.8.2" type="device">
  <diagram name="Page-1" id="9f46799a-70d6-7492-0946-bef42562c5a5">
    <mxGraphModel dx="1386" dy="793" grid="1" gridSize="10" guides="1" tooltips="1" connect="1" arrows="1" fold="1" page="1" pageScale="1" pageWidth="1100" pageHeight="850" background="none" math="0" shadow="0">
      <root>
        <mxCell id="0" />
        <mxCell id="1" parent="0" />
        <mxCell id="D7ge4e6ua518F_ma1OPR-1" value="UX" style="swimlane;childLayout=stackLayout;horizontal=1;startSize=50;horizontalStack=0;rounded=1;fontSize=14;fontStyle=0;strokeWidth=2;resizeParent=0;resizeLast=1;shadow=0;dashed=0;align=center;arcSize=4;whiteSpace=wrap;html=1;" parent="1" vertex="1">
          <mxGeometry x="230" y="60" width="180" height="160" as="geometry" />
        </mxCell>
        <mxCell id="D7ge4e6ua518F_ma1OPR-2" value="+request:Request" style="align=left;strokeColor=none;fillColor=none;spacingLeft=4;fontSize=12;verticalAlign=top;resizable=0;rotatable=0;part=1;html=1;" parent="D7ge4e6ua518F_ma1OPR-1" vertex="1">
          <mxGeometry y="50" width="180" height="70" as="geometry" />
        </mxCell>
        <mxCell id="SAycOQx6C5aF3WZdwBiE-4" value="prompt(String)" style="rounded=0;whiteSpace=wrap;html=1;" parent="D7ge4e6ua518F_ma1OPR-1" vertex="1">
          <mxGeometry y="120" width="180" height="40" as="geometry" />
        </mxCell>
        <mxCell id="Ce2TWr0NqGsEhepz2807-4" value="GUI" style="swimlane;childLayout=stackLayout;horizontal=1;startSize=50;horizontalStack=0;rounded=1;fontSize=14;fontStyle=0;strokeWidth=2;resizeParent=0;resizeLast=1;shadow=0;dashed=0;align=center;arcSize=4;whiteSpace=wrap;html=1;" parent="1" vertex="1">
          <mxGeometry x="640" y="60" width="130" height="120" as="geometry" />
        </mxCell>
        <mxCell id="Ce2TWr0NqGsEhepz2807-5" value="buttons: File" style="align=left;strokeColor=none;fillColor=none;spacingLeft=4;fontSize=12;verticalAlign=top;resizable=0;rotatable=0;part=1;html=1;" parent="Ce2TWr0NqGsEhepz2807-4" vertex="1">
          <mxGeometry y="50" width="130" height="70" as="geometry" />
        </mxCell>
        <mxCell id="SAycOQx6C5aF3WZdwBiE-5" value="" style="edgeStyle=entityRelationEdgeStyle;fontSize=12;html=1;endArrow=ERoneToMany;rounded=0;exitX=0.962;exitY=-0.086;exitDx=0;exitDy=0;exitPerimeter=0;" parent="1" source="SAycOQx6C5aF3WZdwBiE-7" target="D7ge4e6ua518F_ma1OPR-2" edge="1">
          <mxGeometry width="100" height="100" relative="1" as="geometry">
            <mxPoint x="570" y="370" as="sourcePoint" />
            <mxPoint x="370" y="270" as="targetPoint" />
            <Array as="points">
              <mxPoint x="340" y="250" />
              <mxPoint x="350" y="260" />
            </Array>
          </mxGeometry>
        </mxCell>
        <mxCell id="SAycOQx6C5aF3WZdwBiE-6" value="Controller" style="swimlane;childLayout=stackLayout;horizontal=1;startSize=50;horizontalStack=0;rounded=1;fontSize=14;fontStyle=0;strokeWidth=2;resizeParent=0;resizeLast=1;shadow=0;dashed=0;align=center;arcSize=4;whiteSpace=wrap;html=1;" parent="1" vertex="1">
          <mxGeometry x="210" y="400" width="180" height="180" as="geometry" />
        </mxCell>
        <mxCell id="SAycOQx6C5aF3WZdwBiE-7" value="- view:IGetView&lt;br style=&quot;border-color: var(--border-color); text-align: center;&quot;&gt;&lt;span style=&quot;text-align: center;&quot;&gt;-model:IGetModel&lt;br&gt;- requests:List &amp;lt;Requests&amp;gt;&lt;br&gt;&lt;/span&gt;" style="align=left;strokeColor=none;fillColor=none;spacingLeft=4;fontSize=12;verticalAlign=top;resizable=0;rotatable=0;part=1;html=1;" parent="SAycOQx6C5aF3WZdwBiE-6" vertex="1">
          <mxGeometry y="50" width="180" height="70" as="geometry" />
        </mxCell>
        <mxCell id="SAycOQx6C5aF3WZdwBiE-8" value="run()" style="rounded=0;whiteSpace=wrap;html=1;" parent="SAycOQx6C5aF3WZdwBiE-6" vertex="1">
          <mxGeometry y="120" width="180" height="60" as="geometry" />
        </mxCell>
        <mxCell id="nM7PKKFupYrd5b2QO-9n-2" value="IGetView" style="rhombus;whiteSpace=wrap;html=1;" vertex="1" parent="1">
          <mxGeometry x="400" y="250" width="80" height="80" as="geometry" />
        </mxCell>
        <mxCell id="nM7PKKFupYrd5b2QO-9n-3" value="Model" style="swimlane;childLayout=stackLayout;horizontal=1;startSize=50;horizontalStack=0;rounded=1;fontSize=14;fontStyle=0;strokeWidth=2;resizeParent=0;resizeLast=1;shadow=0;dashed=0;align=center;arcSize=4;whiteSpace=wrap;html=1;" vertex="1" parent="1">
          <mxGeometry x="730" y="590" width="130" height="180" as="geometry" />
        </mxCell>
        <mxCell id="nM7PKKFupYrd5b2QO-9n-4" value="- vds: List&amp;lt;VDSRepo&amp;gt;" style="align=left;strokeColor=none;fillColor=none;spacingLeft=4;fontSize=12;verticalAlign=top;resizable=0;rotatable=0;part=1;html=1;" vertex="1" parent="nM7PKKFupYrd5b2QO-9n-3">
          <mxGeometry y="50" width="130" height="70" as="geometry" />
        </mxCell>
        <mxCell id="nM7PKKFupYrd5b2QO-9n-5" value="createVDS()&lt;br&gt;deleteVDS(id)" style="rounded=0;whiteSpace=wrap;html=1;" vertex="1" parent="nM7PKKFupYrd5b2QO-9n-3">
          <mxGeometry y="120" width="130" height="60" as="geometry" />
        </mxCell>
        <mxCell id="nM7PKKFupYrd5b2QO-9n-6" value="OrdersRepo" style="swimlane;childLayout=stackLayout;horizontal=1;startSize=50;horizontalStack=0;rounded=1;fontSize=14;fontStyle=0;strokeWidth=2;resizeParent=0;resizeLast=1;shadow=0;dashed=0;align=center;arcSize=4;whiteSpace=wrap;html=1;" vertex="1" parent="1">
          <mxGeometry x="520" y="850" width="130" height="180" as="geometry" />
        </mxCell>
        <mxCell id="nM7PKKFupYrd5b2QO-9n-7" value="db: File" style="align=left;strokeColor=none;fillColor=none;spacingLeft=4;fontSize=12;verticalAlign=top;resizable=0;rotatable=0;part=1;html=1;" vertex="1" parent="nM7PKKFupYrd5b2QO-9n-6">
          <mxGeometry y="50" width="130" height="70" as="geometry" />
        </mxCell>
        <mxCell id="nM7PKKFupYrd5b2QO-9n-8" value="saveorder()&lt;br&gt;deleteorder()" style="rounded=0;whiteSpace=wrap;html=1;" vertex="1" parent="nM7PKKFupYrd5b2QO-9n-6">
          <mxGeometry y="120" width="130" height="60" as="geometry" />
        </mxCell>
        <mxCell id="nM7PKKFupYrd5b2QO-9n-9" value="VDSRepo" style="swimlane;childLayout=stackLayout;horizontal=1;startSize=50;horizontalStack=0;rounded=1;fontSize=14;fontStyle=0;strokeWidth=2;resizeParent=0;resizeLast=1;shadow=0;dashed=0;align=center;arcSize=4;whiteSpace=wrap;html=1;" vertex="1" parent="1">
          <mxGeometry x="910" y="860" width="130" height="190" as="geometry" />
        </mxCell>
        <mxCell id="nM7PKKFupYrd5b2QO-9n-10" value="+GPU:int&lt;br&gt;+OS: string&lt;br&gt;+ RAM: int&lt;br&gt;+ip: string&lt;br&gt;- id:int" style="align=left;strokeColor=none;fillColor=none;spacingLeft=4;fontSize=12;verticalAlign=top;resizable=0;rotatable=0;part=1;html=1;" vertex="1" parent="nM7PKKFupYrd5b2QO-9n-9">
          <mxGeometry y="50" width="130" height="90" as="geometry" />
        </mxCell>
        <mxCell id="nM7PKKFupYrd5b2QO-9n-11" value="getters...&lt;br&gt;setters..." style="rounded=0;whiteSpace=wrap;html=1;" vertex="1" parent="nM7PKKFupYrd5b2QO-9n-9">
          <mxGeometry y="140" width="130" height="50" as="geometry" />
        </mxCell>
        <mxCell id="nM7PKKFupYrd5b2QO-9n-16" value="1" style="endArrow=open;html=1;endSize=12;startArrow=diamondThin;startSize=14;startFill=1;edgeStyle=orthogonalEdgeStyle;align=left;verticalAlign=bottom;rounded=0;entryX=1;entryY=0.25;entryDx=0;entryDy=0;exitX=-0.031;exitY=0.349;exitDx=0;exitDy=0;exitPerimeter=0;" edge="1" parent="1" source="Ce2TWr0NqGsEhepz2807-4" target="D7ge4e6ua518F_ma1OPR-1">
          <mxGeometry x="-1" y="3" relative="1" as="geometry">
            <mxPoint x="510" y="205" as="sourcePoint" />
            <mxPoint x="630" y="400" as="targetPoint" />
          </mxGeometry>
        </mxCell>
        <mxCell id="nM7PKKFupYrd5b2QO-9n-13" value="1" style="endArrow=open;html=1;endSize=12;startArrow=diamondThin;startSize=14;startFill=1;edgeStyle=orthogonalEdgeStyle;align=left;verticalAlign=bottom;rounded=0;exitX=0.5;exitY=0;exitDx=0;exitDy=0;entryX=0;entryY=0.5;entryDx=0;entryDy=0;" edge="1" parent="1" source="nM7PKKFupYrd5b2QO-9n-6" target="nM7PKKFupYrd5b2QO-9n-4">
          <mxGeometry x="-1" y="3" relative="1" as="geometry">
            <mxPoint x="720" y="680" as="sourcePoint" />
            <mxPoint x="500" y="730" as="targetPoint" />
          </mxGeometry>
        </mxCell>
        <mxCell id="nM7PKKFupYrd5b2QO-9n-22" value="1" style="endArrow=open;html=1;endSize=12;startArrow=diamondThin;startSize=14;startFill=1;edgeStyle=orthogonalEdgeStyle;align=left;verticalAlign=bottom;rounded=0;exitX=0.5;exitY=0;exitDx=0;exitDy=0;entryX=1;entryY=0.5;entryDx=0;entryDy=0;" edge="1" parent="1" source="nM7PKKFupYrd5b2QO-9n-9" target="nM7PKKFupYrd5b2QO-9n-4">
          <mxGeometry x="-1" y="3" relative="1" as="geometry">
            <mxPoint x="930" y="769.5" as="sourcePoint" />
            <mxPoint x="1075" y="594.5" as="targetPoint" />
          </mxGeometry>
        </mxCell>
        <mxCell id="nM7PKKFupYrd5b2QO-9n-23" value="1" style="endArrow=open;html=1;endSize=12;startArrow=diamondThin;startSize=14;startFill=1;edgeStyle=orthogonalEdgeStyle;align=left;verticalAlign=bottom;rounded=0;exitX=-0.046;exitY=0.172;exitDx=0;exitDy=0;entryX=1;entryY=0.5;entryDx=0;entryDy=0;exitPerimeter=0;" edge="1" parent="1" source="nM7PKKFupYrd5b2QO-9n-3" target="SAycOQx6C5aF3WZdwBiE-7">
          <mxGeometry x="-1" y="3" relative="1" as="geometry">
            <mxPoint x="670" y="505" as="sourcePoint" />
            <mxPoint x="815" y="330" as="targetPoint" />
          </mxGeometry>
        </mxCell>
        <mxCell id="nM7PKKFupYrd5b2QO-9n-24" value="IGetModel" style="rhombus;whiteSpace=wrap;html=1;" vertex="1" parent="1">
          <mxGeometry x="520" y="520" width="80" height="80" as="geometry" />
        </mxCell>
      </root>
    </mxGraphModel>
  </diagram>
</mxfile>
